<svg width="232" height="150" viewBox="0 0 232 150" fill="none" xmlns="http://www.w3.org/2000/svg">
<path d="M111.271 150.112C111.221 149.25 111.23 148.388 111.24 147.467C111.736 147.582 111.69 147.928 111.789 148.173C112.122 148.993 112.694 149.537 113.584 149.69C114.162 149.79 114.769 149.517 115.035 149.065C115.398 148.449 115.212 147.827 114.541 147.545C114.192 147.398 113.81 147.333 113.443 147.23C113.19 147.158 112.937 147.083 112.684 147.009C111.232 146.585 111.135 145.482 111.465 144.534C111.805 143.559 113.02 143.108 114.043 143.526C114.283 143.623 114.506 143.763 114.731 143.88C114.942 143.714 115.135 143.56 115.455 143.306C115.581 144.225 115.606 145.01 115.506 145.974C115.299 145.747 115.174 145.652 115.105 145.527C114.908 145.171 114.78 144.767 114.54 144.445C114.103 143.858 113.358 143.669 112.733 143.886C112.257 144.052 112.032 144.407 111.975 144.872C111.922 145.312 112.181 145.69 112.69 145.858C113.357 146.078 114.059 146.196 114.715 146.441C115.841 146.862 116.281 148.006 115.667 149.012C115.424 149.411 114.949 149.668 114.573 150.051C114.147 150.112 113.729 150.112 113.199 150.059C112.751 149.856 112.414 149.705 112.019 149.528C111.871 149.719 111.718 149.915 111.565 150.112C111.486 150.112 111.408 150.112 111.271 150.112Z" fill="#D21818"/>
<path d="M153.814 150.112C153.693 149.248 153.703 148.388 153.754 147.448C154.218 147.608 154.179 147.952 154.281 148.191C154.613 148.974 155.156 149.51 156.002 149.679C156.522 149.783 157.001 149.655 157.372 149.26C157.916 148.681 157.739 147.843 156.995 147.537C156.618 147.381 156.21 147.302 155.815 147.189C155.59 147.124 155.36 147.073 155.138 146.996C153.982 146.593 153.533 145.75 153.896 144.678C154.243 143.652 155.332 143.115 156.387 143.471C156.662 143.564 156.914 143.726 157.205 143.87C157.403 143.729 157.624 143.57 157.932 143.35C158.065 144.246 158.07 145.026 157.954 145.88C157.538 145.71 157.563 145.373 157.452 145.13C157.173 144.516 156.785 144.024 156.098 143.845C155.643 143.727 155.22 143.794 154.855 144.097C154.24 144.609 154.346 145.499 155.079 145.823C155.424 145.976 155.809 146.036 156.176 146.139C156.487 146.226 156.806 146.292 157.106 146.406C158.603 146.976 158.872 148.577 157.65 149.624C157.518 149.737 157.358 149.817 157.069 149.916C156.495 149.937 156.061 149.954 155.565 149.967C155.189 149.826 154.876 149.691 154.489 149.524C154.373 149.703 154.24 149.907 154.108 150.112C154.029 150.112 153.951 150.112 153.814 150.112Z" fill="#D11515"/>
<path d="M165.288 150.112C164.704 148.708 164.293 147.253 163.383 145.924C163.996 145.924 164.581 145.924 165.308 145.924C165.061 146.127 164.894 146.263 164.669 146.447C164.939 147.111 165.217 147.795 165.494 148.48C165.551 148.477 165.607 148.474 165.664 148.471C165.857 147.965 166.057 147.462 166.241 146.952C166.445 146.386 165.928 146.299 165.583 146.096C166.097 145.778 166.865 145.752 167.713 146.028C167.488 146.171 167.315 146.281 167.072 146.435C167.357 147.145 167.638 147.843 167.95 148.62C168.067 148.413 168.157 148.296 168.205 148.163C168.404 147.616 168.591 147.064 168.788 146.495C168.573 146.335 168.399 146.206 168.137 146.011C168.772 145.745 169.302 145.817 170.032 145.953C168.966 146.632 168.927 147.687 168.557 148.576C168.366 149.035 168.212 149.511 168.048 150.046C167.975 150.112 167.897 150.112 167.74 150.051C167.316 149.168 166.97 148.345 166.572 147.4C166.205 148.407 165.893 149.26 165.582 150.112C165.504 150.112 165.425 150.112 165.288 150.112Z" fill="#D11515"/>
<path d="M122.752 150.112C122.362 149.212 122.059 148.305 121.706 147.416C121.51 146.921 121.233 146.458 120.958 145.916C121.498 145.748 122.087 145.887 122.729 146.005C122.573 146.129 122.417 146.253 122.199 146.427C122.332 146.775 122.471 147.154 122.621 147.528C122.76 147.874 122.91 148.216 123.111 148.692C123.332 148.099 123.504 147.664 123.656 147.223C123.874 146.59 123.867 146.59 123.271 146.202C123.211 146.163 123.184 146.073 123.086 145.916C123.807 145.916 124.45 145.916 125.251 145.916C124.986 146.139 124.817 146.281 124.598 146.464C124.863 147.12 125.134 147.791 125.447 148.565C125.901 147.937 126.062 147.291 126.205 146.663C126.243 146.494 125.924 146.244 125.728 145.975C126.27 145.721 126.82 145.857 127.491 145.9C127.346 146.079 127.265 146.171 127.192 146.269C126.99 146.543 126.726 146.793 126.603 147.099C126.218 148.05 125.888 149.022 125.523 150.049C125.432 150.112 125.353 150.112 125.219 150.047C124.838 149.189 124.514 148.396 124.115 147.421C123.725 148.433 123.322 149.219 123.216 150.112C123.083 150.112 122.951 150.112 122.752 150.112Z" fill="#D11515"/>
<path d="M136.71 150.112C136.421 149.928 136.202 149.75 136 149.557C135.577 149.155 135.462 148.656 135.601 148.103C135.714 147.653 136.088 147.384 136.501 147.423C136.876 147.458 137.091 147.679 137.134 148.041C137.175 148.378 136.999 148.61 136.679 148.7C136.519 148.746 136.34 148.724 136.165 148.733C136.282 149.38 136.469 149.57 137.021 149.635C137.568 149.699 137.988 149.491 138.165 149.023C138.246 148.808 138.288 148.565 138.291 148.335C138.303 147.012 138.3 145.69 138.296 144.368C138.295 144.257 138.245 144.145 138.21 144.005C137.877 143.941 137.557 143.879 137.148 143.799C137.773 143.448 139.483 143.429 140.236 143.752C139.901 143.863 139.649 143.947 139.31 144.059C139.31 144.715 139.31 145.385 139.31 146.054C139.31 146.701 139.28 147.349 139.317 147.994C139.371 148.966 138.991 149.639 138.059 150.052C137.625 150.112 137.207 150.112 136.71 150.112Z" fill="#D00F0F"/>
<path d="M141.475 150.112C141.327 150.03 141.261 149.944 141.186 149.867C140.603 149.274 140.631 148.644 141.319 148.169C141.65 147.94 142.048 147.796 142.431 147.656C142.731 147.547 143.055 147.502 143.402 147.42C143.522 147.042 143.556 146.659 143.218 146.383C142.808 146.049 142.351 146.129 141.847 146.35C141.897 146.567 141.964 146.755 141.978 146.946C142.001 147.262 141.831 147.464 141.515 147.462C141.214 147.46 140.996 147.273 141.013 146.966C141.025 146.748 141.105 146.498 141.24 146.331C141.786 145.654 143.121 145.508 143.826 146.011C144.14 146.235 144.28 146.531 144.276 146.914C144.268 147.532 144.267 148.15 144.278 148.767C144.291 149.486 144.299 149.486 145.13 149.623C144.998 149.774 144.897 149.89 144.773 150.059C144.564 150.112 144.375 150.112 144.092 150.054C143.814 149.823 143.631 149.651 143.447 149.477C143.159 149.702 142.896 149.907 142.634 150.112C142.273 150.112 141.913 150.112 141.475 150.112ZM142.074 149.627C143.203 149.598 143.641 149.001 143.338 147.82C143.007 147.921 142.667 147.994 142.352 148.128C141.644 148.428 141.538 148.844 142.074 149.627Z" fill="#D21818"/>
<path d="M171.132 150.112C170.989 150.029 170.931 149.94 170.859 149.865C170.304 149.292 170.308 148.698 170.945 148.227C171.29 147.972 171.713 147.811 172.119 147.654C172.415 147.54 172.74 147.501 173.089 147.42C173.167 147.037 173.248 146.654 172.888 146.377C172.469 146.054 172.021 146.138 171.517 146.364C171.576 146.554 171.635 146.71 171.672 146.871C171.747 147.195 171.568 147.376 171.286 147.454C171.006 147.532 170.64 147.275 170.691 146.978C170.741 146.687 170.887 146.343 171.106 146.164C171.744 145.644 172.497 145.575 173.261 145.873C173.747 146.063 173.98 146.458 173.989 146.977C173.997 147.475 173.992 147.975 173.993 148.474C173.993 148.791 173.993 149.109 173.993 149.461C174.3 149.509 174.513 149.543 174.797 149.588C174.705 149.748 174.639 149.862 174.579 150.044C174.34 150.112 174.095 150.112 173.757 150.049C173.422 149.63 173.103 149.506 172.69 149.654C172.681 149.657 172.655 149.612 172.642 149.525C173.106 149.02 173.274 148.505 173.052 147.788C172.59 147.958 172.141 148.079 171.737 148.288C171.403 148.461 171.268 148.971 171.415 149.292C171.574 149.639 171.862 149.719 172.221 149.627C172.359 149.592 172.506 149.593 172.701 149.624C172.598 149.818 172.444 149.965 172.29 150.112C171.93 150.112 171.569 150.112 171.132 150.112Z" fill="#D31C1C"/>
<path d="M99.1089 150.112C98.9716 150.025 98.9223 149.928 98.8497 149.853C98.2893 149.277 98.2925 148.698 98.9374 148.223C99.2829 147.968 99.7079 147.809 100.115 147.653C100.411 147.539 100.735 147.499 101.085 147.417C101.156 147.037 101.239 146.655 100.879 146.375C100.455 146.047 100.011 146.145 99.5078 146.369C99.5747 146.567 99.6463 146.72 99.6763 146.881C99.7341 147.191 99.5895 147.394 99.2858 147.46C98.992 147.524 98.6445 147.288 98.679 146.986C98.7097 146.72 98.839 146.418 99.0224 146.224C99.5348 145.682 100.667 145.547 101.327 145.9C101.823 146.165 102.006 146.598 102 147.142C101.992 147.901 101.998 148.661 101.998 149.455C102.285 149.508 102.5 149.547 102.783 149.599C102.693 149.751 102.626 149.863 102.561 150.044C102.317 150.112 102.072 150.112 101.74 150.05C101.516 149.817 101.378 149.645 101.23 149.46C100.856 149.713 100.562 149.913 100.267 150.112C99.9069 150.112 99.5465 150.112 99.1089 150.112ZM99.4002 148.709C99.3363 149.065 99.2986 149.434 99.7123 149.599C100.101 149.755 100.447 149.609 100.74 149.329C101.167 148.922 101.207 148.431 101.075 147.857C100.458 147.976 99.8441 148.014 99.4002 148.709Z" fill="#D31E1E"/>
<path d="M128.589 150.112C128.516 150.083 128.535 150.041 128.522 150.027C127.708 149.083 127.841 148.397 128.99 147.891C129.491 147.67 130.039 147.557 130.568 147.395C130.715 146.244 130.235 145.915 129.033 146.415C129.086 146.567 129.161 146.719 129.19 146.88C129.247 147.191 129.096 147.392 128.795 147.458C128.515 147.52 128.168 147.267 128.196 146.97C128.219 146.729 128.334 146.458 128.495 146.278C129.038 145.669 130.241 145.523 130.935 145.947C131.349 146.199 131.515 146.57 131.504 147.055C131.486 147.841 131.499 148.628 131.499 149.456C131.789 149.51 132.002 149.55 132.273 149.6C132.198 149.74 132.136 149.856 132.058 150.042C131.854 150.112 131.666 150.112 131.362 150.07C131.059 149.856 130.871 149.684 130.68 149.509C130.368 149.711 130.057 149.912 129.747 150.112C129.387 150.112 129.026 150.112 128.589 150.112ZM129.773 149.61C130.651 149.053 130.74 148.856 130.54 147.808C130.126 147.95 129.707 148.059 129.319 148.237C128.968 148.399 128.843 148.738 128.889 149.113C128.942 149.543 129.23 149.683 129.773 149.61Z" fill="#D31C1C"/>
<path d="M160.365 150.112C160.112 149.942 159.939 149.769 159.761 149.602C158.85 148.74 158.825 147.143 159.712 146.275C160.735 145.274 162.312 145.659 162.741 147.024C162.827 147.298 162.847 147.592 162.917 147.988C162.386 147.988 161.925 147.988 161.463 147.988C160.999 147.988 160.534 147.988 160.044 147.988C159.996 148.542 160.076 148.981 160.451 149.329C160.818 149.671 161.284 149.711 161.683 149.521C162.07 149.337 162.376 148.985 162.772 148.763C162.686 149.402 162.26 149.743 161.713 150.053C161.28 150.112 160.862 150.112 160.365 150.112ZM161.642 147.6C162.035 147.178 162.021 146.651 161.605 146.295C161.198 145.947 160.599 145.991 160.307 146.458C160.118 146.759 160.053 147.138 159.888 147.608C160.519 147.608 161.007 147.608 161.642 147.6Z" fill="#D31B1B"/>
<path d="M117.997 150.112C117.01 149.508 116.453 148.741 116.625 147.57C116.79 146.439 117.661 145.634 118.694 145.721C119.734 145.809 120.393 146.695 120.313 147.979C119.419 147.979 118.519 147.979 117.587 147.979C117.494 148.642 117.606 149.184 118.163 149.471C119.081 149.944 119.654 149.273 120.251 148.606C120.248 149.335 120.109 149.503 119.18 150.057C118.795 150.112 118.435 150.112 117.997 150.112ZM117.746 146.551C117.667 146.874 117.588 147.197 117.488 147.608C118.061 147.608 118.498 147.611 118.935 147.605C119.075 147.604 119.216 147.576 119.337 147.562C119.52 146.864 119.423 146.486 118.999 146.223C118.55 145.944 118.161 146.06 117.746 146.551Z" fill="#D31B1B"/>
<path d="M95.1552 149.958C95.1552 149.958 95.151 150.035 95.1494 150.074C93.9672 150.112 92.7866 150.112 91.5234 150.112C91.4404 150.08 91.4401 150.048 91.5268 149.975C92.7944 149.942 93.9748 149.95 95.1552 149.958Z" fill="#F3C2C2"/>
<path d="M172.637 149.59C172.655 149.612 172.681 149.657 172.69 149.654C173.104 149.506 173.422 149.63 173.683 150.049C173.284 150.112 172.866 150.112 172.369 150.112C172.444 149.965 172.598 149.818 172.7 149.629C172.647 149.588 172.637 149.59 172.637 149.59Z" fill="#F9DFDF"/>
<path d="M148.54 150.112C148.459 150.112 148.449 150.035 148.531 149.991C149.263 149.936 149.913 149.924 150.562 149.913C150.566 149.946 150.57 149.979 150.576 150.062C149.925 150.112 149.274 150.112 148.54 150.112Z" fill="#F3C2C2"/>
<path d="M147.754 149.939C147.754 149.939 147.757 150.025 147.755 150.069C147.101 150.112 146.449 150.112 145.716 150.112C145.633 150.083 145.632 150.053 145.714 149.983C146.45 149.941 147.102 149.94 147.754 149.939Z" fill="#F3C2C2"/>
<path d="M105.382 149.928C105.385 149.959 105.387 149.989 105.388 150.066C104.735 150.112 104.083 150.112 103.349 150.112C103.268 150.112 103.264 150.024 103.347 149.984C104.081 149.939 104.732 149.933 105.382 149.928Z" fill="#F3C2C2"/>
<path d="M105.997 150.112C105.916 150.112 105.909 150.038 105.99 149.993C106.727 149.947 107.382 149.945 108.037 149.943C108.037 149.943 108.041 150.028 108.038 150.07C107.383 150.112 106.731 150.112 105.997 150.112Z" fill="#F3C2C2"/>
<path d="M71.9422 0.240967C71.9943 0.268881 71.9655 0.296796 71.8898 0.383736C71.278 0.441658 70.7131 0.440554 70.1482 0.43945C70.1625 0.397772 70.1769 0.356094 70.1362 0.277692C70.6746 0.240967 71.268 0.240967 71.9422 0.240967Z" fill="#D73333"/>
<path d="M155.775 150.112C155.696 150.112 155.654 150.046 155.641 150.009C156.061 149.954 156.494 149.937 157.007 149.923C157.066 149.96 157.046 149.994 157.067 150.07C156.69 150.112 156.272 150.112 155.775 150.112Z" fill="#D73333"/>
<path d="M174.424 49.0364C174.434 49.3889 174.453 49.7413 174.453 50.0937C174.454 72.5694 174.454 95.0451 174.454 117.521C174.454 117.87 174.454 118.219 174.454 118.623C127.786 118.623 81.1776 118.623 34.4751 118.623C34.4751 102.298 34.4751 86.0083 34.5479 69.6477C34.8476 69.6344 35.0819 69.6726 35.3002 69.7538C37.2275 70.4708 39.18 71.1291 41.0721 71.9298C47.3234 74.575 53.0509 78.0546 58.0257 82.7188C60.2019 84.7591 62.0805 87.0538 63.9254 89.3844C66.9502 93.2055 70.617 96.2248 75.078 98.2421C81.0454 100.941 87.2619 101.33 93.6368 100.247C97.4822 99.593 101.164 98.3857 104.745 96.872C110.531 94.4263 115.977 91.3452 121.244 87.9359C128.78 83.0582 135.994 77.7286 143.165 72.3397C151.935 65.7501 160.695 59.148 169.471 52.5674C171.093 51.3514 172.772 50.2115 174.424 49.0364Z" fill="#CD0201"/>
<path d="M34.4785 56.0263C34.4785 50.2939 34.4785 44.5615 34.4785 38.7676C34.7174 38.7428 34.9106 38.717 35.1047 38.7045C35.2512 38.695 35.3987 38.7026 35.5458 38.7026C76.3229 38.7025 117.1 38.7025 157.877 38.7029C158.171 38.7029 158.465 38.7077 158.81 38.7747C158.743 38.9285 158.629 39.021 158.51 39.1068C150.162 45.1284 141.822 51.1615 133.462 57.1668C127.251 61.6281 120.998 66.0298 114.449 69.9889C109.864 72.7603 105.17 75.3236 100.154 77.2438C96.5287 78.6314 92.8119 79.5513 88.8849 79.3577C87.4545 79.2872 86.1002 78.9565 84.8096 78.3396C83.1335 77.5387 81.7647 76.35 80.5397 74.9793C78.7756 73.0055 77.0191 71.0251 75.2551 69.0512C70.3776 63.5932 64.8191 58.9617 58.5105 55.2364C58.0385 54.9577 57.5751 54.7881 57.0203 54.8033C54.081 54.8837 51.1411 54.9423 48.2016 55.0187C47.895 55.0267 47.5902 55.1019 47.2237 55.1547C48.5223 55.6261 49.7527 56.0217 50.943 56.5142C54.9066 58.1544 58.5084 60.4287 61.9865 62.9113C66.4335 66.0856 70.5148 69.6633 74.0534 73.8419C75.3073 75.3226 76.534 76.8308 77.8609 78.244C80.0957 80.624 82.8291 82.1707 86.0515 82.7952C88.5357 83.2766 91.0236 83.179 93.5053 82.7618C96.4512 82.2667 99.2478 81.2856 101.987 80.1248C106.905 78.041 111.504 75.3688 115.982 72.4816C121.917 68.6547 127.644 64.5253 133.294 60.2948C141.321 54.284 149.294 48.1991 157.298 42.1564C158.869 40.97 160.477 39.8318 162.068 38.6713C164.763 38.6817 167.457 38.692 170.152 38.7027C170.591 38.7044 171.03 38.7079 171.519 38.7746C169.293 40.4072 166.992 41.94 164.747 43.5505C154.664 50.7826 144.61 58.055 134.52 65.2767C127.561 70.2575 120.515 75.1116 113.055 79.3306C108.571 81.8669 103.981 84.1786 99.0557 85.7533C94.8451 87.0996 90.56 87.886 86.1224 87.2715C83.0776 86.8499 80.2504 85.8497 77.7756 83.9644C75.7192 82.3979 74.0341 80.4791 72.5174 78.4095C70.7742 76.0308 68.8692 73.7945 66.7478 71.7496C59.5505 64.812 51.1372 59.8165 41.8734 56.166C40.5858 55.6586 39.3204 55.6083 37.9912 55.7486C36.8236 55.8718 35.6497 55.936 34.4785 56.0263Z" fill="#CD0201"/>
<path d="M174.464 49.0029C172.771 50.2115 171.093 51.3515 169.471 52.5674C160.695 59.1481 151.935 65.7501 143.165 72.3398C135.993 77.7286 128.78 83.0582 121.244 87.936C115.977 91.3452 110.531 94.4263 104.745 96.872C101.164 98.3857 97.482 99.593 93.6365 100.247C87.2617 101.33 81.0452 100.941 75.0778 98.2421C70.6168 96.2249 66.95 93.2055 63.9252 89.3844C62.0803 87.0538 60.2016 84.7592 58.0255 82.7188C53.0507 78.0547 47.3232 74.575 41.0719 71.9298C39.1798 71.1292 37.2273 70.4708 35.3 69.7539C35.0817 69.6727 34.8474 69.6344 34.5545 69.5608C32.8622 69.0457 31.2476 68.5038 29.6076 68.0541C24.0759 66.5371 18.4559 65.4485 12.7691 64.7127C9.0947 64.2373 5.40086 63.9779 1.69934 63.8277C1.4208 63.8164 1.14264 63.7957 0.844727 63.6671C1.13366 63.555 1.41959 63.4344 1.71197 63.3321C7.01631 61.4775 12.4273 60.0171 17.9466 58.9621C18.2525 58.9036 18.5885 58.9056 18.8952 58.9621C24.1325 59.9274 29.2542 61.3373 34.4347 63.0294C34.8888 63.1845 35.2148 63.3177 35.5465 63.4345C40.1001 65.0382 44.5495 66.8787 48.7572 69.2647C54.3016 72.4085 59.283 76.2621 63.4633 81.0945C64.8083 82.6493 66.0523 84.2934 67.3074 85.9236C70.6409 90.2534 74.9004 93.249 80.1338 94.8217C84.5933 96.1617 89.118 96.1458 93.66 95.3082C98.195 94.4719 102.509 92.9584 106.685 91.0194C112.618 88.2636 118.234 84.9451 123.711 81.3854C132.048 75.9666 140.079 70.1118 148.092 64.2306C156.649 57.9497 165.15 51.5923 173.939 45.6331C174.129 45.5041 174.289 45.33 174.463 45.1769C174.794 44.9913 175.139 44.8274 175.453 44.6171C181.906 40.2985 188.526 36.2474 195.302 32.4641C203.4 27.9426 211.905 24.2922 220.61 21.112C223.477 20.0646 226.401 19.1744 229.408 18.231C229.561 18.3001 229.605 18.3507 229.648 18.4013C224.974 20.4731 220.28 22.5 215.63 24.6253C201.844 30.9267 188.806 38.5159 176.55 47.4417C175.862 47.9426 175.186 48.4598 174.464 49.0029Z" fill="#FFE402"/>
<path d="M174.459 45.085C174.289 45.3299 174.129 45.5041 173.939 45.6331C165.151 51.5923 156.649 57.9497 148.092 64.2306C140.08 70.1118 132.048 75.9666 123.711 81.3854C118.234 84.9451 112.619 88.2636 106.685 91.0194C102.51 92.9584 98.1952 94.4719 93.6602 95.3082C89.1182 96.1457 84.5935 96.1617 80.134 94.8216C74.9006 93.249 70.6411 90.2534 67.3076 85.9236C66.0525 84.2933 64.8085 82.6493 63.4635 81.0945C59.2832 76.262 54.3018 72.4085 48.7574 69.2646C44.5497 66.8787 40.1003 65.0382 35.5467 63.4345C35.215 63.3177 34.889 63.1845 34.5089 63.0361C34.4634 61.8637 34.4694 60.7141 34.5423 59.4914C34.9201 59.5036 35.2331 59.5821 35.5418 59.6751C41.5323 61.4789 47.2511 63.9341 52.7124 66.9721C57.9923 69.9092 62.7397 73.5554 66.8007 78.0448C68.3378 79.744 69.7502 81.5561 71.2146 83.3207C73.9425 86.6079 77.2582 89.063 81.3374 90.4101C85.8415 91.8975 90.4086 91.8597 95.0054 90.8973C99.2923 89.9998 103.33 88.4099 107.248 86.4911C112.807 83.7687 118.096 80.573 123.128 76.9895C130.385 71.8217 137.557 66.5336 144.717 61.231C153.177 54.9656 161.579 48.6234 170.02 42.3316C171.455 41.2616 172.954 40.2772 174.424 39.2532C174.435 41.1665 174.445 43.0798 174.459 45.085Z" fill="#CE0401"/>
<path d="M174.467 39.2145C172.954 40.2772 171.455 41.2616 170.02 42.3316C161.579 48.6234 153.177 54.9656 144.717 61.231C137.557 66.5336 130.385 71.8217 123.128 76.9895C118.096 80.573 112.807 83.7687 107.248 86.4911C103.33 88.4099 99.2923 89.9998 95.0054 90.8973C90.4085 91.8597 85.8414 91.8975 81.3374 90.4101C77.2581 89.063 73.9425 86.6079 71.2146 83.3207C69.7502 81.5561 68.3377 79.744 66.8007 78.0448C62.7396 73.5554 57.9922 69.9092 52.7123 66.9721C47.2511 63.9341 41.5323 61.4789 35.5417 59.6751C35.2331 59.5821 34.9201 59.5036 34.546 59.4105C32.555 58.9235 30.6304 58.4311 28.6978 57.9725C27.9878 57.804 27.258 57.72 26.5392 57.5873C26.347 57.5518 26.1616 57.479 25.98 57.2887C28.7671 56.8874 31.5542 56.4861 34.41 56.0555C35.65 55.936 36.8239 55.8718 37.9915 55.7486C39.3208 55.6083 40.5861 55.6586 41.8737 56.166C51.1375 59.8165 59.5508 64.812 66.7481 71.7496C68.8695 73.7945 70.7745 76.0308 72.5177 78.4095C74.0345 80.4792 75.7195 82.3979 77.7759 83.9644C80.2507 85.8497 83.0779 86.8499 86.1227 87.2715C90.5603 87.886 94.8454 87.0996 99.056 85.7533C103.981 84.1786 108.571 81.8669 113.056 79.3306C120.515 75.1116 127.561 70.2575 134.52 65.2767C144.61 58.055 154.664 50.7826 164.747 43.5505C166.992 41.94 169.293 40.4072 171.605 38.7878C171.968 38.5439 172.306 38.3658 172.622 38.1555C180.336 33.0269 188.181 28.1177 196.401 23.8295C201.302 21.2727 206.302 18.935 211.591 17.0045C211.747 17.0787 211.792 17.1365 211.837 17.1942C208.554 18.8388 205.236 20.419 201.994 22.1401C192.636 27.1073 183.709 32.7804 174.993 38.7922C174.824 38.9085 174.671 39.0473 174.467 39.2145Z" fill="#FEE302"/>
<path d="M162.107 38.6313C160.477 39.8318 158.869 40.97 157.298 42.1564C149.294 48.1991 141.321 54.284 133.294 60.2948C127.643 64.5253 121.917 68.6547 115.982 72.4816C111.504 75.3688 106.905 78.041 101.987 80.1248C99.2478 81.2856 96.4511 82.2667 93.5052 82.7619C91.0235 83.179 88.5357 83.2766 86.0515 82.7952C82.829 82.1707 80.0957 80.624 77.8609 78.2441C76.5339 76.8309 75.3072 75.3226 74.0534 73.8419C70.5148 69.6633 66.4335 66.0856 61.9865 62.9114C58.5084 60.4287 54.9066 58.1544 50.9429 56.5142C49.7526 56.0217 48.5222 55.6261 47.2236 55.1547C47.5902 55.1019 47.895 55.0267 48.2016 55.0188C51.141 54.9423 54.0809 54.8837 57.0203 54.8033C57.575 54.7881 58.0384 54.9577 58.5104 55.2364C64.819 58.9617 70.3776 63.5933 75.2551 69.0512C77.019 71.0251 78.7756 73.0056 80.5396 74.9793C81.7647 76.35 83.1335 77.5387 84.8095 78.3397C86.1002 78.9565 87.4544 79.2872 88.8849 79.3578C92.8118 79.5513 96.5287 78.6314 100.154 77.2439C105.17 75.3237 109.864 72.7604 114.449 69.9889C120.998 66.0298 127.251 61.6281 133.462 57.1668C141.822 51.1615 150.162 45.1285 158.51 39.1068C158.629 39.021 158.743 38.9285 158.895 38.788C159.253 38.5361 159.587 38.3509 159.897 38.1323C168.044 32.3925 176.316 26.8443 184.909 21.7879C185.719 21.3111 186.536 20.8455 187.414 20.4203C187.478 20.5528 187.477 20.6397 187.476 20.7267C184.239 22.9613 180.986 25.1719 177.77 27.4361C172.873 30.8841 168.001 34.3684 163.121 37.8403C162.787 38.0779 162.471 38.3404 162.107 38.6313Z" fill="#FEE202"/>
<path d="M70.0806 0.442514C70.7129 0.440513 71.2778 0.441617 71.9204 0.435303C74.0211 0.905498 75.2277 2.40438 75.3546 4.62226C75.3828 5.11618 75.3587 5.61309 75.3587 6.17259C80.4944 6.17259 85.5713 6.17259 90.7027 6.17259C90.7275 6.44945 90.7469 6.66537 90.7747 6.97555C89.7639 6.97555 88.8073 6.97555 87.7599 6.97555C87.7599 7.319 87.7599 7.57517 87.7599 7.83133C87.76 11.3907 87.7601 14.95 87.7602 18.5094C87.7602 18.5682 87.7596 18.6271 87.7608 18.6859C87.7814 19.7148 87.9203 19.8572 88.9345 19.8854C89.0789 19.8894 89.2236 19.8859 89.4312 19.8859C89.466 20.1339 89.4961 20.3486 89.5361 20.6339C87.7901 20.6339 86.1048 20.6339 84.3955 20.6339C84.3955 20.3989 84.3955 20.1799 84.3955 19.8848C84.6734 19.8848 84.9033 19.895 85.132 19.8829C85.7941 19.848 86.0096 19.6531 86.1067 18.9962C86.1324 18.8229 86.1258 18.6442 86.1277 18.4679C86.1307 18.1854 86.1285 17.9028 86.1285 17.4967C85.8285 17.6918 85.6511 17.8355 85.451 17.9324C84.7143 18.2895 83.9953 18.7073 83.2235 18.9631C81.5121 19.5304 80.1042 18.9412 78.9754 17.6188C78.6348 17.2198 78.3475 16.763 78.1018 16.2979C77.6317 15.4076 77.1258 14.5557 76.2326 13.9629C76.3468 13.6992 76.446 13.4701 76.5346 13.2657C77.0978 13.4862 77.5981 13.723 78.1224 13.8782C79.0759 14.1605 79.9836 13.9355 80.8539 13.519C81.4294 13.2436 81.7346 12.744 81.8773 12.1537C82.1149 11.1708 82.1645 10.1779 81.9236 9.18346C81.566 7.70784 80.6681 6.98322 79.1646 6.97573C77.8764 6.96932 76.5882 6.97441 75.241 6.97441C75.2229 7.26706 75.1969 7.4926 75.1968 7.71815C75.1944 11.3363 75.1952 14.9545 75.1955 18.5727C75.1955 18.7197 75.1892 18.8675 75.2007 19.0138C75.2509 19.6512 75.4374 19.8423 76.0658 19.8817C76.3243 19.8979 76.5847 19.8843 76.9014 19.8843C76.9141 20.1727 76.9235 20.3894 76.9351 20.653C75.2148 20.653 73.5477 20.653 71.8136 20.653C71.7918 20.4433 71.7693 20.2275 71.742 19.9653C71.9341 19.9327 72.0708 19.8936 72.2086 19.8886C73.3319 19.8478 73.523 19.6725 73.5478 18.5403C73.5691 17.57 73.5541 16.5989 73.5548 15.6282C73.5567 12.9513 73.5593 10.2744 73.5582 7.59758C73.5581 7.42472 73.5292 7.25187 73.5092 7.02782C72.0893 7.02782 70.6912 7.02782 69.2258 7.02782C69.2035 7.23998 69.1602 7.46178 69.1599 7.68362C69.1559 11.3312 69.1571 14.9788 69.1577 18.6264C69.1577 18.7734 69.1534 18.9213 69.1672 19.0673C69.2243 19.6681 69.3945 19.8466 69.9792 19.8911C70.2394 19.9109 70.5024 19.8944 70.8262 19.8944C70.8569 20.1545 70.8823 20.3696 70.9151 20.6475C69.1609 20.6475 67.4709 20.6475 65.7357 20.6475C65.7357 20.4111 65.7357 20.1957 65.7357 19.9371C66.0386 19.9216 66.2985 19.9139 66.5574 19.8939C67.1555 19.8478 67.4156 19.6839 67.4309 19.1184C67.4769 17.4175 67.6236 15.7101 67.2948 14.018C67.1582 13.3157 66.7765 12.7751 66.1895 12.3827C64.8401 11.4803 63.2372 11.9125 62.5722 13.3877C62.3701 13.8361 62.2197 14.3381 62.1856 14.8254C62.1243 15.7024 62.1158 16.5908 62.1824 17.4671C62.2632 18.531 62.5025 18.9465 63.4276 20.1461C63.2233 20.3092 63.0186 20.4727 62.7662 20.6741C61.5767 20.052 60.8307 19.093 60.4798 17.8153C60.1692 16.684 60.171 15.5478 60.5085 14.4222C61.3782 11.5215 64.3891 10.3528 66.9904 11.9C67.1071 11.9694 67.2253 12.0366 67.4333 12.1575C67.4333 10.7116 67.4762 9.37219 67.4158 8.03748C67.3842 7.33935 66.935 6.98348 66.2392 6.98094C63.4448 6.97074 60.6505 6.98259 57.8561 6.98873C57.8363 6.98878 57.8166 7.02302 57.737 7.09663C59.2148 8.66279 59.5949 10.5603 59.1229 12.6041C58.6204 14.7805 57.1297 15.9137 54.8533 16.1867C55.3748 17.326 55.9083 18.3881 56.9094 19.1359C57.6401 19.6818 58.4154 19.7468 59.2234 19.317C59.4279 19.2083 59.6224 19.0808 59.8653 18.9358C59.977 19.0685 60.0824 19.1938 60.1799 19.3096C59.3389 20.6888 57.1374 21.018 55.7748 20.0587C54.9589 19.4843 54.3525 18.7433 53.9083 17.865C53.4121 16.8839 52.8063 15.9925 51.871 15.2847C51.9644 15.006 52.0538 14.739 52.166 14.404C52.3342 14.4997 52.4556 14.5577 52.5653 14.6328C53.7096 15.4164 54.9172 15.443 56.1749 14.95C56.7636 14.7191 57.1627 14.3018 57.3373 13.7074C57.8231 12.054 57.8138 10.3903 57.2451 8.76556C56.8337 7.59051 55.9447 6.98377 54.6835 6.97657C53.423 6.96937 52.1624 6.97498 50.8408 6.97498C50.8119 7.2483 50.7683 7.47008 50.7681 7.69191C50.7639 11.3101 50.765 14.9283 50.766 18.5464C50.7661 18.7227 50.7637 18.9005 50.7843 19.0751C50.8557 19.6826 51.0161 19.8413 51.6133 19.8811C51.8723 19.8983 52.1335 19.884 52.4485 19.884C52.4664 20.1611 52.4805 20.3792 52.4979 20.649C50.7749 20.649 49.1113 20.649 47.3757 20.649C47.3566 20.4376 47.3371 20.2216 47.3112 19.9348C47.6175 19.916 47.8734 19.9009 48.1293 19.8846C48.8018 19.8417 49.0045 19.6548 49.0799 18.9831C49.1028 18.7793 49.0973 18.5719 49.0974 18.3661C49.0983 15.1891 49.0981 12.0122 49.0976 8.83527C49.0976 8.68823 49.0995 8.54081 49.0903 8.39421C49.0244 7.34765 48.6434 6.98125 47.6056 6.9753C46.7599 6.97044 45.914 6.97431 45.0253 6.97431C45.0076 7.31287 44.9826 7.5699 44.9824 7.82694C44.9799 11.3863 44.9807 14.9456 44.9811 18.505C44.9811 18.6814 44.9749 18.8587 44.9893 19.0342C45.0413 19.6712 45.2186 19.8443 45.8661 19.8825C46.0996 19.8963 46.3347 19.8848 46.6652 19.8848C46.6844 20.1444 46.7017 20.3782 46.7224 20.6573C44.968 20.6573 43.3012 20.6573 41.5637 20.6573C41.5483 20.4296 41.5337 20.2137 41.5148 19.9338C41.8216 19.9154 42.0786 19.901 42.3354 19.8845C43.0187 19.8404 43.2094 19.6754 43.275 18.9794C43.3163 18.5416 43.3032 18.0981 43.3047 17.6571C43.3082 16.5988 43.3058 15.5405 43.3058 14.416C42.3841 14.416 41.4928 14.416 40.5027 14.416C40.5027 14.8533 40.5109 15.2849 40.5006 15.716C40.4866 16.3037 40.4912 16.8945 40.4295 17.4778C40.301 18.6914 39.682 19.3361 38.4778 19.5014C38.0184 19.5644 37.5351 19.5917 37.0799 19.5223C35.4557 19.2749 34.3846 17.9499 34.4817 16.3747C34.5845 14.7062 35.7623 13.5751 37.4758 13.5136C37.971 13.4958 38.4673 13.5108 39.0098 13.5108C39.0098 12.9998 39.0098 12.5462 39.0098 12.025C38.648 12.0645 38.3377 12.0941 38.0285 12.1328C36.1479 12.3683 34.731 11.3231 34.5004 9.52812C34.2786 7.8006 35.4813 6.30065 37.3066 6.13148C37.8757 6.07873 38.4909 6.16459 39.0398 6.33375C39.949 6.61394 40.4117 7.32423 40.4409 8.2682C40.481 9.5614 40.4799 10.8559 40.4939 12.1499C40.4984 12.5606 40.4946 12.9714 40.4946 13.4512C41.4229 13.4512 42.3133 13.4512 43.3058 13.4512C43.3058 12.8149 43.306 12.1777 43.3058 11.5404C43.3055 10.5991 43.3178 9.65758 43.3016 8.71654C43.2771 7.30156 42.9988 7.02145 41.6074 6.94953C41.5503 6.94658 41.4943 6.923 41.4373 6.90912C41.4054 6.86136 41.3509 6.81546 41.3467 6.76529C41.3344 6.62082 41.3423 6.47463 41.3423 6.20252C49.8396 6.17879 58.3285 6.20322 66.91 6.19344C66.91 5.84731 66.8759 5.53144 66.9167 5.22557C67.021 4.44381 67.0498 3.62832 67.307 2.89587C67.7519 1.62847 68.7219 0.833312 70.0806 0.442514ZM79.8175 16.1658C80.7285 17.8012 82.4589 18.373 84.2891 17.6214C84.72 17.4444 85.1181 17.1865 85.5284 16.9607C85.9802 16.712 86.1518 16.3537 86.1446 15.8132C86.1133 13.4648 86.1385 11.1158 86.1225 8.76709C86.1199 8.39275 86.0916 7.97831 85.9279 7.65754C85.7859 7.37918 85.4486 7.04033 85.1745 7.0184C84.2066 6.941 83.2287 6.98828 82.1567 6.98828C83.5673 8.50407 84.0189 10.1424 83.3637 11.9592C82.6935 13.8178 81.169 14.5976 79.2022 14.7999C79.4077 15.2588 79.5844 15.6534 79.8175 16.1658ZM69.4535 1.82761C68.471 3.13504 68.6233 4.62882 68.6532 6.14503C70.3481 6.14503 71.9474 6.14503 73.538 6.14503C73.7294 4.92129 73.6416 3.55271 73.3295 2.70218C72.6837 0.94234 70.9511 0.497526 69.4535 1.82761ZM39.027 8.84314C39.0131 8.21304 38.8669 7.62207 38.456 7.12942C37.7793 6.31819 36.6173 6.43432 36.2513 7.41147C35.8195 8.56446 35.8128 9.78012 36.302 10.9226C36.6916 11.8323 37.7148 11.948 38.388 11.2112C38.5795 11.0017 38.7572 10.7347 38.8229 10.4653C38.9393 9.9883 38.965 9.48922 39.027 8.84314ZM36.1421 15.1924C35.9226 16.1787 35.8963 17.1649 36.1863 18.1407C36.3406 18.66 36.7016 18.9962 37.2385 19.0851C37.7858 19.1756 38.2051 18.9185 38.5207 18.4899C38.6407 18.327 38.7508 18.1454 38.8158 17.9553C39.1394 17.009 39.1414 16.0487 38.7933 15.1166C38.5683 14.514 38.1498 14.0442 37.4427 14.0287C36.7573 14.0138 36.3905 14.4517 36.1421 15.1924Z" fill="#CF0C0C"/>
<path d="M116.17 18.0442C113.324 19.5082 110.656 17.601 110.266 15.0206C110.112 14.0053 110.156 13.0248 110.506 12.0689C111.355 9.75296 113.847 8.76296 116.067 9.84255C116.244 9.92846 116.42 10.0152 116.662 10.1337C116.662 9.4356 116.698 8.82367 116.653 8.21768C116.598 7.47639 116.167 6.93302 115.277 6.95753C113.308 7.01178 111.336 6.97308 109.366 6.97647C109.167 6.97681 108.969 7.00573 108.731 7.02454C108.717 7.32451 108.695 7.58305 108.694 7.8416C108.692 11.4004 108.693 14.9592 108.693 18.5181C108.693 18.6945 108.689 18.8719 108.705 19.0471C108.763 19.6842 108.935 19.8462 109.593 19.8825C109.826 19.8954 110.06 19.8846 110.319 19.8846C110.366 20.0184 110.422 20.1211 110.435 20.2289C110.449 20.3418 110.42 20.4596 110.405 20.6354C108.705 20.6354 107.017 20.6354 105.278 20.6354C105.278 20.411 105.278 20.1949 105.278 19.9214C105.592 19.9077 105.88 19.9054 106.167 19.8803C106.693 19.8342 106.886 19.6571 106.976 19.1266C107.011 18.9252 107.013 18.7165 107.013 18.5111C107.017 14.864 107.02 11.217 107.019 7.5699C107.019 7.40004 106.991 7.23018 106.973 7.01923C105.978 7.01923 105.021 7.01923 103.983 7.01923C103.983 8.75272 103.983 10.4741 103.983 12.2608C103.393 12.2608 102.882 12.2608 102.264 12.2608C102.264 11.9266 102.272 11.6125 102.263 11.2988C102.243 10.6572 101.936 10.1627 101.392 9.85551C100.577 9.39585 99.7101 9.3435 98.8495 9.72379C98.0778 10.0648 97.7029 10.7955 97.7962 11.6752C97.8816 12.48 98.412 13.0744 99.2525 13.2188C99.7126 13.2978 100.189 13.281 100.658 13.3062C101.275 13.3393 101.891 13.3911 102.508 13.4C104.642 13.4308 106.065 15.4847 105.2 17.7885C104.498 19.6573 102.971 20.5228 101.035 20.6944C99.6284 20.8191 98.3559 20.4258 97.2339 19.5735C95.3204 18.1201 94.391 16.1145 93.999 13.8054C94.6399 13.6314 94.6607 13.6275 94.7652 14.1824C95.0577 15.7342 95.766 17.059 96.8982 18.1543C98.0531 19.2717 99.4429 19.6947 101.025 19.4871C102.782 19.2566 103.972 17.6808 103.699 15.9684C103.523 14.86 102.959 14.2972 101.838 14.2036C101.166 14.1474 100.48 14.2354 99.8123 14.1547C99.0339 14.0605 98.2439 13.9271 97.5053 13.6749C96.6642 13.3877 96.173 12.718 96.1142 11.8073C96.0534 10.8668 96.473 10.1582 97.2765 9.6857C98.4812 8.97726 99.7803 8.90844 101.116 9.17216C101.458 9.23972 101.79 9.35844 102.262 9.49198C102.262 9.1259 102.274 8.81973 102.26 8.51478C102.203 7.28481 101.875 6.97591 100.633 6.97475C98.9562 6.97317 97.2797 6.97435 95.6033 6.97435C95.3127 6.97435 95.0222 6.97435 94.6793 6.97435C94.6793 6.70029 94.6793 6.48428 94.6793 6.23108C104.685 6.23108 114.677 6.23108 124.72 6.23108C124.72 6.46974 124.72 6.68326 124.72 6.96022C122.609 6.96022 120.528 6.96022 118.381 6.96022C118.381 7.99856 118.381 8.9765 118.381 10.033C118.557 9.96448 118.711 9.91373 118.856 9.84597C121.262 8.7286 123.792 9.85733 124.54 12.3949C124.855 13.464 124.853 14.5447 124.533 15.6129C123.847 17.8958 121.835 18.9825 119.424 18.3234C119.509 18.1205 119.59 17.9267 119.678 17.7147C119.957 17.7781 120.18 17.8481 120.409 17.8773C121.209 17.9798 121.857 17.695 122.325 17.0441C122.494 16.8093 122.641 16.5412 122.726 16.266C123.184 14.766 123.201 13.249 122.744 11.7516C122.481 10.8921 121.946 10.2372 120.978 10.1118C119.939 9.9772 119.05 10.4754 118.69 11.5032C118.471 12.1298 118.35 12.8176 118.331 13.4821C118.282 15.1866 118.314 16.8934 118.316 18.5993C118.316 18.7753 118.312 18.9545 118.342 19.1268C118.432 19.6547 118.624 19.8296 119.156 19.8653C119.416 19.8827 119.678 19.8683 120.001 19.8683C120.027 20.13 120.048 20.3473 120.075 20.6284C118.361 20.6284 116.701 20.6284 114.97 20.6284C114.97 20.4089 114.97 20.1752 114.97 19.8693C115.233 19.8693 115.463 19.8787 115.693 19.8675C116.357 19.8349 116.586 19.639 116.658 18.9805C116.695 18.6335 116.664 18.2789 116.664 17.8666C116.492 17.9248 116.363 17.9685 116.17 18.0442ZM116.564 12.8443C116.422 12.3088 116.353 11.7385 116.121 11.2453C115.695 10.342 114.821 9.93949 113.85 10.1193C112.976 10.2812 112.46 10.8862 112.213 11.6802C111.729 13.2337 111.737 14.8077 112.247 16.3578C112.354 16.6814 112.558 16.9968 112.789 17.2512C113.555 18.095 114.827 18.1454 115.611 17.322C115.941 16.9751 116.2 16.5072 116.345 16.0481C116.658 15.0599 116.718 14.0302 116.564 12.8443Z" fill="#CF0D0D"/>
<path d="M64.1307 29.5976C63.6157 30.4836 62.8005 30.889 61.8217 31.029C62.3421 32.4295 63.4623 33.0148 64.7207 32.5421C64.9419 32.8123 64.7419 32.9848 64.5526 33.1091C63.7899 33.6097 62.9748 33.6006 62.2171 33.1587C61.8 32.9155 61.4416 32.5296 61.138 32.1441C60.7726 31.6801 60.4541 31.1891 59.9055 30.9116C59.8549 30.886 59.8503 30.7694 59.7884 30.5923C60.214 30.6203 60.5766 30.6516 60.94 30.6663C61.4481 30.6867 61.9392 30.6279 62.3599 30.3011C62.9953 29.8075 63.2983 29.1579 63.1445 28.3665C62.9697 27.4668 62.3525 26.9262 61.4902 26.7304C60.9261 26.6024 60.3304 26.6139 59.7178 26.5602C59.7178 26.4103 59.7178 26.2735 59.7178 26.0653C61.5909 26.0653 63.4328 26.0653 65.2747 26.0653C65.3028 26.0117 65.331 25.958 65.3591 25.9043C65.0173 25.619 64.6758 25.3334 64.3336 25.0485C63.9946 24.7664 63.6586 24.4805 63.3147 24.2045C62.9487 23.9109 62.5532 23.6502 62.2111 23.3317C61.8956 23.0381 61.3076 23.4205 61.0609 22.797C61.9312 22.5841 62.6947 22.5965 63.3909 23.1591C64.0542 23.695 64.7229 24.2243 65.393 24.7515C65.9124 25.1601 66.4193 25.5891 66.9704 25.9501C67.1641 26.077 67.4725 26.0561 67.7287 26.0566C71.0814 26.0628 74.4341 26.0604 77.7868 26.0616C78.0218 26.0617 78.2676 26.0344 78.4871 26.096C78.5891 26.1246 78.6398 26.3358 78.7594 26.5434C78.3137 26.5923 77.976 26.6295 77.5887 26.672C77.5686 26.9171 77.5341 27.1422 77.5344 27.3673C77.5367 28.8674 77.5443 30.3675 77.5547 31.8676C77.5607 32.7468 77.5644 32.7468 78.195 33.2413C77.7533 33.507 76.9149 33.5524 75.7057 33.3561C75.8295 33.2346 75.8992 33.1159 76 33.0765C76.3227 32.9501 76.4484 32.7047 76.4487 32.3883C76.4503 30.5355 76.4452 28.6826 76.4375 26.8298C76.4373 26.7795 76.3817 26.7295 76.3361 26.6526C75.8875 26.6526 75.4234 26.6526 74.8981 26.6526C74.8791 26.895 74.8455 27.1206 74.8463 27.3461C74.8516 28.8462 74.8758 30.3464 74.8688 31.8463C74.8661 32.4331 74.8245 33.0091 75.5444 33.3236C74.6972 33.5117 73.906 33.4501 72.9591 33.44C73.3912 32.9591 73.9603 32.663 73.6261 31.9255C73.4127 32.0636 73.2136 32.2006 73.0068 32.3246C71.7749 33.0635 70.1823 32.8033 69.2454 31.7131C68.3477 30.6686 68.3939 29.1798 69.3546 28.1951C70.3345 27.1908 71.765 26.9859 72.9949 27.6789C73.193 27.7905 73.3793 27.9229 73.6696 28.1089C73.6696 27.5886 73.6696 27.1737 73.6696 26.7539C73.0442 26.5789 68.9607 26.5411 67.565 26.7132C67.565 26.9866 67.5639 27.2723 67.5652 27.558C67.5718 28.9993 67.5805 30.4405 67.5854 31.8818C67.5884 32.7538 67.5858 32.7538 68.1707 33.2744C67.6473 33.511 66.5968 33.5375 65.6885 33.3153C66.9617 32.6122 66.3233 31.4975 66.4554 30.5795C65.7659 30.5204 65.165 30.485 64.569 30.4105C64.3004 30.377 64.1534 30.2007 64.3511 29.8495C64.9259 29.8319 65.4214 29.906 65.9132 29.8866C66.0961 29.8794 66.4161 29.6632 66.4253 29.5257C66.4889 28.5734 66.5153 27.6153 66.4265 26.6813C64.7547 26.5207 63.4902 26.5745 62.9882 26.8119C64.2595 27.9978 64.399 28.3381 64.1307 29.5976ZM71.7709 27.9319C70.3688 28.1283 69.6332 28.9356 69.7252 30.177C69.8099 31.3201 70.7181 32.0846 71.9507 32.0707C72.5834 32.0637 73.0571 31.7421 73.5058 31.3515C73.9088 31.0006 73.6961 30.5302 73.7452 30.1115C73.7622 29.9671 73.7217 29.8133 73.7523 29.6736C73.9262 28.8779 73.4455 28.4742 72.836 28.1811C72.5549 28.0458 72.2252 28.0114 71.7709 27.9319Z" fill="#D11414"/>
<path d="M53.275 26.0606C53.6814 26.0623 54.0105 26.0301 54.3254 26.0829C54.4451 26.103 54.5321 26.3183 54.7491 26.5875C53.0501 26.5875 51.5598 26.5875 50.0018 26.5875C50.0018 27.1067 50.0018 27.5617 50.0018 28.0707C50.3016 27.9437 50.6046 27.7906 50.9233 27.6847C51.9753 27.3351 53.1152 27.7327 53.7161 28.6412C54.3325 29.5731 54.2703 30.7579 53.5616 31.5865C52.8094 32.4659 51.7304 32.7193 50.696 32.2568C50.4883 32.1639 50.2247 32.1054 50.3531 31.7186C51.3843 31.8422 52.4263 31.8896 52.9322 30.6912C53.2245 29.9988 53.0515 29.2525 52.4756 28.7718C51.7129 28.1353 50.8764 28.1518 49.9393 28.5787C49.9393 29.8618 49.903 31.1523 49.9665 32.4378C49.9812 32.7343 50.3381 33.014 50.5327 33.2946C50.0652 33.5074 49.0347 33.5387 48.0872 33.322C48.529 32.9604 49.0091 32.6268 48.7061 31.9853C46.8285 32.699 45.8671 32.5675 45.0402 31.4938C44.3737 30.6284 44.356 29.4879 44.9957 28.6272C45.8502 27.4775 46.852 27.3001 48.7468 27.9924C48.7468 27.5543 48.7468 27.1357 48.7468 26.6672C47.0924 26.6672 45.4861 26.6672 43.8144 26.6672C43.7953 26.8822 43.7578 27.1066 43.7583 27.3309C43.7617 28.8308 43.7725 30.3308 43.7823 31.8307C43.7883 32.7536 43.7894 32.7536 44.5563 33.3855C43.6239 33.5133 42.8159 33.4421 41.957 33.2984C42.048 33.2182 42.1573 33.151 42.2264 33.055C42.3875 32.8313 42.6545 32.5962 42.659 32.3615C42.6945 30.4859 42.6788 28.6094 42.6788 26.6772C42.0331 26.6772 41.4664 26.6772 40.8442 26.6772C40.8442 27.2157 40.8442 27.7093 40.8442 28.3332C40.1599 28.3352 39.527 28.3235 38.8952 28.3442C38.5168 28.3565 38.1351 28.3942 37.7642 28.4677C37.4728 28.5254 37.1191 28.6819 37.2086 29.0197C37.2656 29.2347 37.5833 29.4458 37.8282 29.5298C38.1534 29.6412 38.5207 29.6427 38.8715 29.6623C39.2527 29.6837 39.6375 29.65 40.0178 29.6788C40.7592 29.735 41.286 30.1311 41.5708 30.8061C41.8248 31.4082 41.5917 32.0888 41.0076 32.622C39.9608 33.5773 38.1153 33.7517 36.7969 32.9895C35.616 32.3068 34.87 31.3038 34.6376 29.8463C34.8333 29.8947 35.053 29.8851 35.1087 29.9759C35.2274 30.1696 35.2482 30.4204 35.3318 30.6391C35.9321 32.2084 37.6764 33.1579 39.2463 32.7094C39.6414 32.5966 40.0539 32.3226 40.3141 32.0046C40.8996 31.2892 40.5107 30.3671 39.5929 30.2167C39.1905 30.1507 38.7686 30.2105 38.3626 30.1583C37.7861 30.0841 37.2028 30.0044 36.6477 29.841C36.2429 29.7218 35.9014 29.3962 35.905 28.9437C35.9088 28.4445 36.3076 28.1593 36.734 28.0157C37.1166 27.8868 37.5339 27.8345 37.9398 27.8081C38.4612 27.7742 38.9865 27.7999 39.556 27.7999C39.556 27.3917 39.556 27.0573 39.556 26.64C37.8541 26.64 36.1907 26.64 34.5637 26.64C34.3948 26.2982 34.4029 26.0964 34.7535 26.0704C34.9876 26.0531 35.2237 26.0609 35.4589 26.0609C41.37 26.0605 47.2811 26.0606 53.275 26.0606ZM48.6601 28.5537C48.2987 28.4474 47.9426 28.3154 47.5748 28.2411C47.0859 28.1424 46.6465 28.3183 46.2772 28.6256C45.5976 29.1912 45.4565 30.4182 45.9971 31.0942C46.67 31.9354 47.7383 31.977 48.528 31.5373C48.6691 31.4587 48.7899 31.2109 48.7924 31.0393C48.804 30.2535 48.7702 29.467 48.6601 28.5537Z" fill="#D11414"/>
<path d="M121.819 33.3424C121.096 33.5036 120.055 33.5013 119.191 33.3039C119.824 32.9898 120.041 32.543 119.825 31.8825C119.016 32.5757 118.095 32.8776 117.055 32.6767C116.333 32.5373 115.763 32.1369 115.315 31.5566C114.554 30.569 114.634 29.1862 115.508 28.2445C116.641 27.024 118.119 26.9567 119.843 28.0865C119.843 27.6077 119.843 27.1635 119.843 26.6728C117.815 26.6728 115.81 26.6728 113.722 26.6728C113.722 27.134 113.719 27.5393 113.723 27.9445C113.734 29.1793 113.745 30.4142 113.761 31.649C113.774 32.7001 113.777 32.7 114.365 33.3047C113.759 33.4938 112.934 33.5179 111.885 33.3562C112.057 33.2169 112.188 33.1428 112.275 33.0332C112.412 32.8593 112.61 32.6676 112.623 32.4731C112.666 31.8065 112.639 31.1355 112.639 30.4647C111.751 30.4852 110.821 30.9261 110.277 29.8186C109.662 30.4559 108.95 30.948 107.967 31.0186C108.178 31.7023 108.736 32.057 109.189 32.48C109.733 32.9881 110.374 32.7569 111.045 32.5224C110.937 33.203 110.462 33.3307 110.027 33.413C109.163 33.576 108.386 33.344 107.783 32.6839C107.468 32.3381 107.225 31.9247 106.908 31.5811C106.622 31.2719 106.277 31.0163 105.994 30.5802C106.381 30.6103 106.768 30.6507 107.156 30.6685C108.054 30.7097 108.773 30.4039 109.181 29.5573C109.747 28.3833 109.044 27.0168 107.687 26.7257C107.123 26.6047 106.531 26.6117 105.907 26.5565C105.917 26.3971 105.925 26.2619 105.937 26.0648C107.788 26.0648 109.607 26.0648 111.564 26.115C112.183 26.1209 112.666 26.0766 113.148 26.0324C115.931 26.0412 118.715 26.05 121.498 26.0588C122.465 26.0618 123.432 26.0681 124.399 26.0665C124.723 26.066 124.921 26.1516 124.772 26.5617C124.472 26.594 124.157 26.6278 123.79 26.6672C123.772 26.9011 123.739 27.1254 123.74 27.3496C123.745 28.8443 123.776 30.3392 123.76 31.8336C123.754 32.4334 123.756 32.9866 124.46 33.2865C123.664 33.5571 122.891 33.4157 122.049 33.3748C122.558 32.9601 122.702 32.4509 122.683 31.7881C122.637 30.2633 122.671 28.7361 122.664 27.2099C122.664 27.0206 122.611 26.8315 122.583 26.6456C122.06 26.6456 121.601 26.6456 121.1 26.6456C121.086 26.9068 121.063 27.1361 121.063 27.3653C121.062 28.8622 121.104 30.3603 121.053 31.8554C121.03 32.5406 121.199 33.0337 121.819 33.3424ZM117.036 28.1489C116.145 28.627 115.847 29.398 115.96 30.3608C116.083 31.4127 117.081 32.1451 118.263 32.0649C119.306 31.9943 119.9 31.3291 119.901 30.2315C119.901 30.0553 119.916 29.8774 119.897 29.7034C119.857 29.3396 120.045 28.9273 119.684 28.6287C119.25 28.2697 118.794 27.9292 118.202 27.9406C117.857 27.9473 117.514 28.0448 117.036 28.1489ZM109.947 27.5526C110.508 28.2114 110.564 28.9635 110.275 29.7821C111.108 29.8545 111.871 30.1519 112.606 29.6965C112.606 28.6703 112.606 27.6843 112.606 26.6782C111.42 26.6782 110.278 26.6782 109.006 26.6782C109.357 26.9988 109.607 27.2274 109.947 27.5526Z" fill="#D01010"/>
<path d="M142.19 133.871C142.19 131.077 142.19 128.372 142.189 125.666C142.189 125.431 142.201 125.194 142.176 124.961C142.12 124.418 141.952 124.228 141.407 124.178C140.971 124.139 140.53 124.17 140.023 124.17C139.999 123.919 139.979 123.711 139.951 123.424C140.223 123.424 140.423 123.424 140.623 123.424C142.799 123.425 144.976 123.393 147.151 123.443C147.932 123.461 148.747 123.568 149.48 123.823C151.545 124.543 152.498 126.739 151.722 128.782C151.495 129.38 151.1 129.837 150.588 130.211C149.447 131.043 148.144 131.325 146.765 131.347C145.952 131.36 145.138 131.35 144.254 131.35C144.254 133.063 144.237 134.674 144.263 136.285C144.272 136.835 144.525 137.046 145.115 137.077C145.666 137.106 146.22 137.084 146.806 137.084C146.806 137.375 146.806 137.57 146.806 137.805C144.543 137.805 142.315 137.805 140.013 137.805C139.994 137.596 139.975 137.387 139.948 137.09C140.425 137.09 140.832 137.1 141.238 137.088C142.039 137.065 142.168 136.945 142.185 136.165C142.201 135.43 142.189 134.695 142.19 133.871ZM144.593 124.244C144.233 124.509 144.246 124.896 144.246 125.282C144.247 126.723 144.246 128.165 144.246 129.606C144.246 129.92 144.246 130.234 144.246 130.586C145.458 130.669 146.572 130.703 147.667 130.464C148.667 130.246 149.402 129.646 149.543 128.601C149.656 127.77 149.682 126.902 149.573 126.073C149.431 124.994 148.673 124.373 147.62 124.193C146.664 124.029 145.692 123.943 144.593 124.244Z" fill="#CE0707"/>
<path d="M97.0401 29.2408C97.5798 30.6011 97.41 31.5225 96.4686 32.3421C95.3926 33.2789 93.8179 33.0647 92.9065 31.8578C92.0577 30.7336 92.3462 29.1304 93.5315 28.3892C94.2729 27.9257 95.0913 27.8091 95.9051 28.0548C96.8204 28.3311 97.7007 28.7232 98.632 29.0785C98.632 28.3472 98.632 27.5505 98.632 26.6274C96.2727 26.6112 93.9092 26.6094 91.4818 26.642C91.4607 26.8846 91.4237 27.1092 91.4244 27.3337C91.4294 28.8922 91.4569 30.4508 91.4444 32.0091C91.4399 32.562 91.4609 33.056 92.1813 33.2265C91.5531 33.5133 90.529 33.5378 89.5618 33.2945C90.4608 32.9227 90.358 32.2119 90.3481 31.5229C90.3348 30.5894 90.3448 29.6555 90.3448 28.6816C89.5689 28.6816 88.8784 28.6816 88.0693 28.6816C88.2594 28.9146 88.4032 29.0787 88.5338 29.2529C89.1795 30.1141 89.2192 31.1614 88.6366 31.857C88.0043 32.6118 86.9348 32.8462 85.9908 32.3838C84.9593 31.8786 84.3141 31.0144 83.9709 29.9408C83.8116 29.4421 83.5734 28.9262 83.8995 28.3329C83.9797 28.525 84.0645 28.7155 84.1393 28.9097C84.3179 29.3737 84.4605 29.8548 84.6782 30.2994C84.8304 30.6101 85.0492 30.9062 85.2975 31.1481C85.7731 31.6117 86.3179 31.9743 87.0322 31.7115C87.5948 31.5045 87.9073 30.9323 87.8942 30.2101C87.8786 29.3477 87.5935 28.9073 86.784 28.6501C86.4454 28.5424 86.4804 28.3647 86.5553 28.0133C87.78 28.0133 89.0221 28.0133 90.2976 28.0133C90.2976 27.506 90.2976 27.1106 90.2976 26.618C87.9755 26.618 85.6978 26.618 83.2886 26.618C83.4153 26.3536 83.4494 26.1424 83.5494 26.1044C83.7314 26.0353 83.9525 26.0611 84.1573 26.0611C89.4795 26.0596 94.8017 26.0594 100.124 26.0617C100.352 26.0618 100.58 26.0883 100.835 26.1041C100.881 27.0066 100.068 26.3673 99.7775 26.8973C99.7775 27.6842 99.7758 28.6491 99.778 29.6139C99.7799 30.4079 99.7859 31.2018 99.7909 31.9957C99.7942 32.5225 99.6719 33.1136 100.639 33.1496C99.9579 33.5063 99.036 33.5456 97.9433 33.3441C98.0674 33.2223 98.1388 33.1023 98.2421 33.06C98.6027 32.9123 98.6916 32.625 98.693 32.2799C98.6947 31.8388 98.6333 31.387 98.708 30.9589C98.8698 30.0311 98.4461 29.521 97.6284 29.23C97.5179 29.1907 97.412 29.1386 97.1974 29.0585C97.0448 29.037 96.9988 29.0494 96.9528 29.0618C96.9819 29.1215 97.011 29.1812 97.0401 29.2408ZM96.1571 29.6115C96.0785 29.4222 96.021 29.2204 95.9177 29.0456C95.3528 28.0895 94.4033 28.108 93.8648 29.0861C93.4759 29.7925 93.4404 30.5435 93.6693 31.3016C93.9057 32.0848 94.4406 32.5589 94.9901 32.5213C95.5027 32.4862 96.0776 31.8802 96.1829 31.156C96.2495 30.6981 96.194 30.2225 96.1571 29.6115Z" fill="#D11515"/>
<path d="M117.539 123.285C117.885 123.282 118.147 123.282 118.523 123.282C118.523 123.622 118.523 123.933 118.523 124.245C118.523 127.888 118.522 131.532 118.524 135.175C118.524 135.468 118.522 135.764 118.558 136.054C118.655 136.822 118.863 137.019 119.617 137.085C119.787 137.1 119.96 137.087 120.166 137.087C120.202 137.241 120.245 137.348 120.248 137.455C120.25 137.566 120.212 137.677 120.187 137.815C119.198 137.815 118.234 137.815 117.176 137.815C117.094 137.316 117.011 136.814 116.907 136.178C116.654 136.464 116.49 136.651 116.325 136.837C115.04 138.286 113.04 138.38 111.638 137.036C110.388 135.839 110.1 134.305 110.215 132.667C110.298 131.496 110.7 130.44 111.536 129.572C112.998 128.054 115.344 127.967 116.602 129.706C116.647 129.769 116.717 129.812 116.899 129.976C116.899 129.427 116.899 129.002 116.899 128.578C116.899 127.49 116.908 126.403 116.896 125.316C116.888 124.486 116.631 124.225 115.802 124.161C115.544 124.141 115.285 124.135 114.988 124.121C114.988 123.882 114.988 123.691 114.988 123.423C115.826 123.377 116.641 123.332 117.539 123.285ZM114.893 129.299C113.422 129.007 112.467 129.948 112.289 131.258C112.159 132.211 112.126 133.188 112.171 134.149C112.199 134.748 112.363 135.38 112.622 135.922C113.26 137.26 114.803 137.5 115.836 136.436C116.173 136.089 116.468 135.64 116.617 135.184C117.047 133.871 117.059 132.52 116.65 131.197C116.391 130.356 115.894 129.674 114.893 129.299Z" fill="#CF0B0B"/>
<path d="M100.128 129.382C99.8317 129.333 99.6023 129.306 99.3754 129.278C99.2185 128.894 99.3104 128.695 99.7203 128.673C100.567 128.629 101.414 128.577 102.328 128.524C102.428 129.128 102.518 129.669 102.627 130.325C102.831 130.11 102.999 129.938 103.161 129.761C103.874 128.99 104.739 128.561 105.804 128.545C107.511 128.518 108.594 129.446 108.747 131.156C108.818 131.944 108.784 132.743 108.79 133.536C108.796 134.301 108.786 135.066 108.793 135.831C108.803 136.912 108.933 137.043 109.998 137.09C110.086 137.094 110.173 137.104 110.335 137.117C110.36 137.318 110.386 137.531 110.419 137.799C108.799 137.799 107.252 137.799 105.65 137.799C105.632 137.601 105.615 137.41 105.593 137.176C105.793 137.143 105.957 137.103 106.124 137.089C107.073 137.01 107.185 136.905 107.191 135.968C107.2 134.733 107.195 133.498 107.189 132.262C107.188 131.998 107.179 131.731 107.141 131.47C107.029 130.702 106.722 130.045 105.942 129.76C105.138 129.466 104.378 129.594 103.705 130.136C102.966 130.732 102.653 131.558 102.613 132.461C102.56 133.694 102.577 134.932 102.599 136.167C102.612 136.85 102.821 137.03 103.512 137.084C103.711 137.099 103.912 137.086 104.157 137.086C104.17 137.348 104.179 137.542 104.191 137.793C102.606 137.793 101.061 137.793 99.4431 137.793C99.4314 137.592 99.4192 137.384 99.4043 137.128C99.697 137.11 99.9278 137.105 100.156 137.079C100.792 137.008 100.97 136.83 100.977 136.177C100.991 134.942 100.982 133.707 100.982 132.471C100.982 131.824 100.981 131.177 100.98 130.53C100.98 129.971 100.766 129.562 100.128 129.382Z" fill="#CF0A0A"/>
<path d="M126.456 136.546C126.195 135.23 126.789 134.381 127.781 133.753C128.943 133.018 130.248 132.681 131.588 132.457C131.869 132.41 132.15 132.354 132.488 132.291C132.488 131.825 132.508 131.418 132.484 131.013C132.428 130.046 131.911 129.465 130.952 129.233C130.228 129.059 129.547 129.189 128.912 129.537C128.486 129.77 128.454 129.965 128.675 130.395C128.729 130.499 128.806 130.591 128.858 130.696C129.141 131.278 128.947 131.892 128.419 132.098C127.802 132.338 127.092 132.021 126.918 131.405C126.775 130.897 126.836 130.381 127.184 129.988C127.529 129.6 127.918 129.201 128.371 128.967C129.682 128.29 131.076 128.217 132.47 128.695C133.568 129.072 134.123 129.874 134.134 131.03C134.148 132.499 134.138 133.967 134.138 135.436C134.138 135.642 134.132 135.848 134.146 136.053C134.209 137.037 134.552 137.258 135.527 136.953C135.577 136.937 135.636 136.947 135.698 136.944C136.036 137.2 136.031 137.435 135.683 137.702C134.775 138.399 133.544 138.209 132.919 137.254C132.792 137.06 132.685 136.852 132.533 136.588C132.318 136.769 132.12 136.92 131.94 137.089C130.856 138.112 129.567 138.293 128.17 138C127.373 137.832 126.775 137.403 126.456 136.546ZM129.959 137.345C131.98 136.855 132.905 135.215 132.354 132.966C131.653 133.139 130.938 133.274 130.252 133.499C129.788 133.652 129.316 133.869 128.935 134.168C128.245 134.709 128.092 135.473 128.305 136.307C128.504 137.089 129.072 137.36 129.959 137.345Z" fill="#CF0D0D"/>
<path d="M98.455 124.141C97.9907 124.153 97.6069 124.138 97.2264 124.166C96.6312 124.211 96.4727 124.383 96.4165 124.991C96.4003 125.166 96.4087 125.344 96.4087 125.52C96.4083 128.903 96.4084 132.286 96.4084 135.669C96.4084 135.757 96.4076 135.845 96.4094 135.934C96.4292 136.925 96.5629 137.066 97.5228 137.09C97.8726 137.099 98.2228 137.092 98.6404 137.092C98.6568 137.349 98.6703 137.561 98.6861 137.81C96.4818 137.81 94.3411 137.81 92.1521 137.81C92.1365 137.594 92.1227 137.403 92.1001 137.091C92.5505 137.091 92.9509 137.101 93.3506 137.089C94.2158 137.063 94.3508 136.924 94.395 136.043C94.4023 135.896 94.3979 135.748 94.3979 135.601C94.398 132.277 94.398 128.953 94.398 125.629C94.398 125.57 94.3983 125.511 94.3977 125.453C94.3854 124.313 94.2502 124.172 93.1428 124.153C92.8253 124.147 92.5077 124.152 92.1439 124.152C92.1439 123.888 92.1439 123.699 92.1439 123.468C94.2971 123.468 96.4353 123.468 98.6146 123.468C98.7357 123.696 98.7823 123.923 98.455 124.141Z" fill="#CE0404"/>
<path d="M159.221 135.423C158.556 136.824 157.513 137.671 156.056 137.933C153.898 138.322 151.99 137.162 151.297 135.073C150.927 133.958 150.902 132.814 151.183 131.679C151.713 129.543 153.445 128.239 155.559 128.347C157.596 128.45 159.283 130.028 159.559 132.148C159.7 133.232 159.687 134.322 159.221 135.423ZM157.443 130.508C157.117 129.81 156.642 129.274 155.857 129.1C154.648 128.833 153.603 129.402 153.18 130.686C152.633 132.347 152.654 134.043 153.204 135.708C153.319 136.058 153.549 136.396 153.804 136.668C154.614 137.532 155.988 137.56 156.79 136.69C157.136 136.315 157.437 135.823 157.561 135.334C157.955 133.774 157.994 132.196 157.443 130.508Z" fill="#CF0C0C"/>
<path d="M161.333 137.602C161.079 137.768 160.87 137.882 160.529 138.066C160.452 136.742 160.384 135.585 160.314 134.393C160.685 134.218 160.931 134.25 161.103 134.64C161.293 135.069 161.487 135.501 161.731 135.899C162.566 137.267 163.966 137.458 165.281 137.13C165.552 137.063 165.823 136.885 166.028 136.688C166.806 135.938 166.553 134.772 165.531 134.435C165.004 134.262 164.446 134.183 163.902 134.056C163.417 133.943 162.925 133.848 162.449 133.702C161.124 133.298 160.445 132.436 160.47 131.232C160.494 130.007 161.348 128.91 162.539 128.562C163.394 128.312 164.225 128.379 165.032 128.743C165.27 128.85 165.497 128.98 165.736 129.103C166.035 128.877 166.322 128.66 166.735 128.348C166.934 129.566 167.027 130.621 167.011 131.678C166.637 131.818 166.416 131.766 166.278 131.401C166.145 131.046 165.979 130.695 165.773 130.378C165.097 129.342 163.863 128.91 162.685 129.267C161.968 129.484 161.527 129.993 161.503 130.632C161.479 131.269 161.786 131.712 162.573 131.951C163.299 132.173 164.06 132.281 164.802 132.455C165.258 132.563 165.731 132.646 166.155 132.835C167.842 133.584 168.23 135.486 166.998 136.847C165.927 138.03 164.149 138.365 162.629 137.662C162.338 137.527 162.063 137.358 161.627 137.122C161.557 137.242 161.467 137.396 161.333 137.602Z" fill="#D00E0E"/>
<path d="M173.567 137.085C172.832 137.79 172.015 138.008 171.087 137.833C169.909 137.611 169.28 136.907 169.262 135.713C169.238 134.068 169.255 132.424 169.254 130.779C169.254 130.399 169.254 130.019 169.254 129.541C168.738 129.541 168.258 129.541 167.724 129.541C167.724 129.256 167.724 129.068 167.724 128.833C169.745 128.344 170.019 126.677 170.233 124.928C170.432 124.928 170.616 124.928 170.858 124.928C170.858 126.126 170.858 127.294 170.858 128.544C171.837 128.544 172.761 128.544 173.753 128.544C173.792 128.863 173.822 129.108 173.866 129.471C172.854 129.471 171.905 129.471 170.874 129.471C170.874 129.897 170.874 130.212 170.874 130.528C170.874 132.114 170.866 133.7 170.878 135.285C170.885 136.256 171.242 136.787 171.917 136.893C172.678 137.013 173.291 136.57 173.581 135.651C173.686 135.318 173.722 134.963 173.788 134.618C173.854 134.267 174.063 134.217 174.406 134.348C174.494 135.347 174.242 136.245 173.567 137.085Z" fill="#CF0B0B"/>
<path d="M122.662 134.745C122.661 133.426 122.665 132.193 122.66 130.961C122.656 129.736 122.399 129.478 121.171 129.444C121.054 129.441 120.937 129.433 120.75 129.425C120.729 129.212 120.707 129.001 120.677 128.714C121.879 128.666 123.013 128.622 124.228 128.574C124.25 128.875 124.285 129.125 124.285 129.375C124.289 131.517 124.287 133.658 124.288 135.8C124.288 137.06 124.289 137.059 125.563 137.092C125.678 137.095 125.793 137.109 125.978 137.123C125.995 137.345 126.012 137.556 126.031 137.809C124.303 137.809 122.638 137.809 120.929 137.809C120.917 137.59 120.906 137.396 120.889 137.087C121.245 137.087 121.558 137.105 121.868 137.083C122.406 137.044 122.61 136.861 122.649 136.327C122.684 135.831 122.66 135.33 122.662 134.745Z" fill="#CF0808"/>
<path d="M95.2189 149.942C93.9751 149.95 92.7947 149.942 91.5324 149.927C91.5088 149.807 91.5456 149.62 91.6293 149.596C91.8472 149.534 92.0857 149.543 92.3007 149.524C92.4929 148.884 92.54 145.235 92.3736 144.02C92.0768 143.956 91.7591 143.888 91.4414 143.819C91.4381 143.772 91.4349 143.724 91.4316 143.676C91.5662 143.626 91.7001 143.534 91.8353 143.532C92.7456 143.519 93.6563 143.518 94.5668 143.526C96.2438 143.54 97.2586 144.374 97.5373 146.035C97.7175 147.108 97.5901 148.153 96.8601 149.028C96.4534 149.516 95.9067 149.799 95.2189 149.942ZM96.4132 146.187C96.2296 144.233 95.2404 143.514 93.5053 144.074C93.3471 145.059 93.3837 148.866 93.573 149.535C93.8137 149.547 94.0731 149.573 94.3322 149.57C95.6333 149.555 96.29 148.959 96.3999 147.67C96.4373 147.233 96.4149 146.79 96.4132 146.187Z" fill="#D00E0E"/>
<path d="M108.058 149.894C107.382 149.945 106.727 149.947 105.99 149.956C105.911 149.846 105.869 149.658 105.923 149.625C106.057 149.542 106.234 149.53 106.486 149.466C106.094 148.917 105.747 148.43 105.409 147.956C104.809 148.08 104.803 148.483 104.812 148.901C104.822 149.372 104.818 149.372 105.386 149.856C104.731 149.933 104.081 149.939 103.349 149.94C103.141 149.35 103.768 149.704 103.986 149.436C103.986 148.562 103.986 147.687 103.986 146.813C103.986 146.196 103.988 145.58 103.986 144.963C103.984 144.091 103.983 144.091 103.197 143.791C103.555 143.406 103.751 143.37 104.788 143.519C104.788 144.85 104.788 146.192 104.788 147.628C105.422 147.371 105.78 146.942 106.214 146.473C105.96 146.326 105.759 146.21 105.569 146.101C105.649 145.772 106.874 145.73 107.906 146.018C107.48 146.23 107.121 146.367 106.809 146.577C106.497 146.787 106.233 147.069 105.907 147.355C106.372 147.999 106.8 148.624 107.267 149.218C107.396 149.381 107.65 149.441 107.832 149.569C107.93 149.638 107.998 149.752 108.058 149.894Z" fill="#D21818"/>
<path d="M147.77 149.868C147.102 149.94 146.45 149.941 145.716 149.939C145.484 149.359 146.179 149.728 146.303 149.392C146.303 148.515 146.281 147.638 146.312 146.763C146.33 146.227 145.816 146.291 145.502 146.015C145.976 145.714 146.442 145.844 146.926 145.742C146.992 145.956 147.048 146.142 147.11 146.345C147.191 146.318 147.28 146.305 147.35 146.261C147.498 146.167 147.626 146.036 147.781 145.957C148.808 145.429 149.77 145.968 149.854 147.125C149.884 147.534 149.863 147.946 149.863 148.357C149.864 149.344 149.864 149.344 150.566 149.844C149.913 149.924 149.263 149.936 148.531 149.952C148.342 149.762 148.381 149.603 148.611 149.581C148.954 149.548 149.057 149.347 149.054 149.047C149.047 148.432 149.045 147.817 149.025 147.202C149.012 146.783 148.849 146.463 148.389 146.379C147.913 146.292 147.503 146.472 147.297 146.918C147.189 147.152 147.136 147.418 147.095 147.676C147.062 147.876 147.085 148.085 147.085 148.29C147.083 149.301 147.083 149.301 147.77 149.868Z" fill="#D11515"/>
<path d="M113.143 25.9692C112.665 26.0766 112.183 26.1209 111.647 26.1267C111.494 25.9555 111.414 25.7985 111.29 25.694C110.553 25.0723 109.801 24.468 109.063 23.847C108.632 23.4844 108.204 23.1512 107.591 23.1635C107.48 23.1658 107.365 22.9593 107.177 22.776C108.281 22.5326 109.098 22.6973 109.86 23.3397C110.921 24.2334 112.043 25.0541 113.143 25.9692Z" fill="#D73333"/>
<path d="M124.056 123.694C124.399 124.588 124.183 125.197 123.515 125.39C123.072 125.518 122.614 125.369 122.334 125.005C122.065 124.657 122.043 124.138 122.282 123.769C122.553 123.35 123.034 123.151 123.504 123.308C123.69 123.37 123.845 123.526 124.056 123.694Z" fill="#CF0B0B"/>
<path d="M82.5411 29.3793C83.0579 29.3591 83.2142 29.5402 83.0259 30.0095C81.6477 30.0095 80.2555 30.0095 78.7921 30.0095C78.7778 29.8343 78.7631 29.6537 78.7407 29.3792C80.0172 29.3792 81.239 29.3792 82.5411 29.3793Z" fill="#D52626"/>
<path d="M133.101 146.754C133.082 146.54 133.089 146.4 133.098 146.22C133.696 146.22 134.26 146.22 134.858 146.22C134.858 146.446 134.858 146.639 134.858 146.931C134.258 146.895 133.692 146.862 133.101 146.754Z" fill="#D11414"/>
<path d="M211.902 17.1911C211.792 17.1365 211.747 17.0787 211.654 16.9906C212.519 16.6152 213.431 16.2702 214.416 15.9383C214.488 15.9515 214.532 15.9666 214.532 15.9666C213.677 16.3737 212.822 16.7808 211.902 17.1911Z" fill="#FFEE47"/>
<path d="M187.537 20.7169C187.477 20.6397 187.478 20.5528 187.474 20.4009C188.081 19.97 188.693 19.6042 189.363 19.2842C189.419 19.3822 189.418 19.4344 189.417 19.4866C188.81 19.8935 188.204 20.3004 187.537 20.7169Z" fill="#FFEE47"/>
<path d="M214.485 15.9283C214.715 15.7892 214.948 15.6732 215.181 15.5572C215.212 15.6284 215.243 15.6995 215.273 15.7707C215.066 15.8395 214.858 15.9083 214.591 15.9718C214.532 15.9666 214.488 15.9514 214.485 15.9283Z" fill="#FFF48B"/>
<path d="M189.471 19.4679C189.418 19.4344 189.419 19.3822 189.422 19.2512C189.564 19.0948 189.704 19.0172 189.845 18.9396C189.883 18.9819 189.92 19.0241 189.958 19.0663C189.814 19.1939 189.67 19.3215 189.471 19.4679Z" fill="#FFF48B"/>
<path d="M190.65 18.6013C190.518 18.7211 190.386 18.8409 190.254 18.9608C190.214 18.9122 190.174 18.8636 190.133 18.8149C190.264 18.7392 190.395 18.6634 190.587 18.5936C190.649 18.5996 190.65 18.6013 190.65 18.6013Z" fill="#FFF48B"/>
<path d="M215.751 15.4943C215.728 15.5188 215.688 15.5212 215.648 15.5235C215.677 15.5063 215.705 15.4892 215.751 15.4943Z" fill="#FFF48B"/>
<path d="M190.648 18.5984C190.669 18.5611 190.692 18.5249 190.714 18.4886C190.715 18.5202 190.716 18.5517 190.684 18.5922C190.651 18.6013 190.649 18.5995 190.648 18.5984Z" fill="#FFF48B"/>
<path d="M191.077 18.3224C191.089 18.3152 191.065 18.3296 191.077 18.3224Z" fill="#FFF48B"/>
<path d="M97.0766 29.2001C97.0109 29.1812 96.9818 29.1215 96.9526 29.0619C96.9987 29.0494 97.0447 29.037 97.1342 29.0476C97.1562 29.1002 97.1347 29.1297 97.0766 29.2001Z" fill="#FFFEFE"/>
</svg>
